<svg xmlns="http://www.w3.org/2000/svg" xmlns:xlink="http://www.w3.org/1999/xlink" viewBox="0 0 411.52 399.87"><defs><style>.cls-1{isolation:isolate;}.cls-2{opacity:0.35;mix-blend-mode:multiply;}.cls-3{fill:#fff;opacity:0;}.cls-4{fill:#fbfbfb;opacity:0.02;}.cls-5{fill:#f7f7f7;opacity:0.03;}.cls-6{fill:#f2f2f2;opacity:0.05;}.cls-7{fill:#eee;opacity:0.07;}.cls-8{fill:#eaeaea;opacity:0.08;}.cls-9{fill:#e6e6e6;opacity:0.1;}.cls-10{fill:#e2e2e2;opacity:0.11;}.cls-11{fill:#dedede;opacity:0.13;}.cls-12{fill:#d9d9d9;opacity:0.15;}.cls-13{fill:#d5d5d5;opacity:0.16;}.cls-14{fill:#d1d1d1;opacity:0.18;}.cls-15{fill:#cdcdcd;opacity:0.2;}.cls-16{fill:#c9c9c9;opacity:0.21;}.cls-17{fill:#c4c4c4;opacity:0.23;}.cls-18{fill:silver;opacity:0.25;}.cls-19{fill:#bcbcbc;opacity:0.26;}.cls-20{fill:#b8b8b8;opacity:0.28;}.cls-21{fill:#b4b4b4;opacity:0.3;}.cls-22{fill:#b0b0b0;opacity:0.31;}.cls-23{fill:#ababab;opacity:0.33;}.cls-24{fill:#a7a7a7;opacity:0.34;}.cls-25{fill:#a3a3a3;opacity:0.36;}.cls-26{fill:#9f9f9f;opacity:0.38;}.cls-27{fill:#9b9b9b;opacity:0.39;}.cls-28{fill:#969696;opacity:0.41;}.cls-29{fill:#929292;opacity:0.43;}.cls-30{fill:#8e8e8e;opacity:0.44;}.cls-31{fill:#8a8a8a;opacity:0.46;}.cls-32{fill:#868686;opacity:0.48;}.cls-33{fill:#828282;opacity:0.49;}.cls-34{fill:#7d7d7d;opacity:0.51;}.cls-35{fill:#797979;opacity:0.52;}.cls-36{fill:#757575;opacity:0.54;}.cls-37{fill:#717171;opacity:0.56;}.cls-38{fill:#6d6d6d;opacity:0.57;}.cls-39{fill:#696969;opacity:0.59;}.cls-40{fill:#646464;opacity:0.61;}.cls-41{fill:#606060;opacity:0.62;}.cls-42{fill:#5c5c5c;opacity:0.64;}.cls-43{fill:#585858;opacity:0.66;}.cls-44{fill:#545454;opacity:0.67;}.cls-45{fill:#4f4f4f;opacity:0.69;}.cls-46{fill:#4b4b4b;opacity:0.7;}.cls-47{fill:#474747;opacity:0.72;}.cls-48{fill:#434343;opacity:0.74;}.cls-49{fill:#3f3f3f;opacity:0.75;}.cls-50{fill:#3b3b3b;opacity:0.77;}.cls-51{fill:#363636;opacity:0.79;}.cls-52{fill:#323232;opacity:0.8;}.cls-53{fill:#2e2e2e;opacity:0.82;}.cls-54{fill:#2a2a2a;opacity:0.84;}.cls-55{fill:#262626;opacity:0.85;}.cls-56{fill:#212121;opacity:0.87;}.cls-57{fill:#1d1d1d;opacity:0.89;}.cls-58{fill:#191919;opacity:0.9;}.cls-59{fill:#151515;opacity:0.92;}.cls-60{fill:#111;opacity:0.93;}.cls-61{fill:#0d0d0d;opacity:0.95;}.cls-62{fill:#080808;opacity:0.97;}.cls-63{fill:#040404;opacity:0.98;}.cls-64{fill:url(#_ÂÁ_Ï_ÌÌ_È_ËÂÌÚ_33);}.cls-65{fill:#8a92c8;}.cls-66{fill:url(#_ÂÁ_Ï_ÌÌ_È_ËÂÌÚ_19);}.cls-67{opacity:0.6;mix-blend-mode:screen;fill:url(#_ÂÁ_Ï_ÌÌ_È_ËÂÌÚ_147);}</style><linearGradient id="_ÂÁ_Ï_ÌÌ_È_ËÂÌÚ_33" x1="14.81" y1="92.01" x2="335.86" y2="260.87" gradientUnits="userSpaceOnUse"><stop offset="0" stop-color="#e3e3e3"/><stop offset="0.14" stop-color="#ebebeb"/><stop offset="0.55" stop-color="#fff"/></linearGradient><linearGradient id="_ÂÁ_Ï_ÌÌ_È_ËÂÌÚ_19" x1="28.46" y1="76.28" x2="379.51" y2="314.5" gradientUnits="userSpaceOnUse"><stop offset="0" stop-color="#fff"/><stop offset="1" stop-color="#d6d6d6"/></linearGradient><radialGradient id="_ÂÁ_Ï_ÌÌ_È_ËÂÌÚ_147" cx="-11662.97" cy="38868.78" r="234.46" gradientTransform="translate(15080.69 -49713.83) scale(1.28)" gradientUnits="userSpaceOnUse"><stop offset="0.13" stop-color="#fff"/><stop offset="0.41" stop-color="#aeacac"/><stop offset="0.7" stop-color="#636061"/><stop offset="0.9" stop-color="#353132"/><stop offset="1" stop-color="#231f20"/></radialGradient></defs><title>ERC-20</title><g class="cls-1"><g id="Layer_2" data-name="Layer 2"><g id="Layer_1-2" data-name="Layer 1"><g class="cls-2"><path class="cls-3" d="M411.52,208.22c0,105.84-85.8,191.65-191.65,191.65S28.22,314.07,28.21,208.23,114,16.58,219.86,16.57,411.51,102.37,411.52,208.22Z"/><path class="cls-4" d="M410.46,207.77C410.46,313.35,324.87,399,219.29,399S28.11,313.36,28.11,207.78,113.7,16.6,219.28,16.6,410.46,102.19,410.46,207.77Z"/><path class="cls-5" d="M409.41,207.32C409.41,312.64,324,398,218.71,398S28,312.65,28,207.33,113.38,16.62,218.7,16.62,409.4,102,409.41,207.32Z"/><path class="cls-6" d="M408.35,206.87c0,105.06-85.16,190.23-190.22,190.23S27.9,311.94,27.9,206.88,113.06,16.65,218.12,16.65,408.35,101.81,408.35,206.87Z"/><path class="cls-7" d="M407.3,206.42c0,104.79-85,189.75-189.75,189.75S27.79,311.22,27.79,206.43,112.74,16.67,217.54,16.67,407.29,101.62,407.3,206.42Z"/><path class="cls-8" d="M406.24,206c0,104.53-84.74,189.28-189.28,189.28S27.69,310.51,27.68,206,112.42,16.69,217,16.69,406.24,101.43,406.24,206Z"/><path class="cls-9" d="M405.19,205.52c0,104.27-84.53,188.8-188.81,188.8S27.58,309.8,27.58,205.53,112.1,16.72,216.38,16.72,405.18,101.24,405.19,205.52Z"/><path class="cls-10" d="M404.13,205.07c0,104-84.31,188.33-188.33,188.33S27.47,309.09,27.47,205.07,111.79,16.74,215.8,16.74,404.13,101.05,404.13,205.07Z"/><path class="cls-11" d="M403.08,204.62c0,103.74-84.11,187.85-187.86,187.85S27.37,308.37,27.36,204.62,111.47,16.77,215.22,16.76,403.07,100.87,403.08,204.62Z"/><circle class="cls-12" cx="214.64" cy="204.17" r="187.38" transform="translate(-45.14 61.8) rotate(-14.84)"/><circle class="cls-13" cx="214.06" cy="203.72" r="186.91" transform="matrix(0.97, -0.26, 0.26, 0.97, -45.31, 62.13)"/><circle class="cls-14" cx="213.48" cy="203.27" r="186.43" transform="translate(-45.48 62.45) rotate(-15.06)"/><circle class="cls-15" cx="212.9" cy="202.82" r="185.96" transform="translate(-45.65 62.77) rotate(-15.17)"/><circle class="cls-16" cx="212.32" cy="202.37" r="185.48" transform="translate(-45.82 63.09) rotate(-15.28)"/><circle class="cls-17" cx="211.74" cy="201.92" r="185.01" transform="translate(-45.98 63.4) rotate(-15.38)"/><circle class="cls-18" cx="211.15" cy="201.47" r="184.53" transform="translate(-46.14 63.71) rotate(-15.49)"/><circle class="cls-19" cx="210.57" cy="201.01" r="184.06" transform="translate(-46.29 64.02) rotate(-15.6)"/><circle class="cls-20" cx="209.99" cy="200.56" r="183.59" transform="translate(-46.45 64.32) rotate(-15.7)"/><circle class="cls-21" cx="209.41" cy="200.11" r="183.11" transform="translate(-46.6 64.62) rotate(-15.81)"/><circle class="cls-22" cx="208.83" cy="199.66" r="182.64" transform="translate(-46.74 64.91) rotate(-15.91)"/><circle class="cls-23" cx="208.25" cy="199.21" r="182.16" transform="translate(-46.89 65.2) rotate(-16.02)"/><circle class="cls-24" cx="207.67" cy="198.76" r="181.69" transform="translate(-47.03 65.49) rotate(-16.12)"/><circle class="cls-25" cx="207.09" cy="198.31" r="181.21" transform="translate(-47.17 65.77) rotate(-16.23)"/><circle class="cls-26" cx="206.51" cy="197.86" r="180.74" transform="translate(-47.3 66.05) rotate(-16.33)"/><circle class="cls-27" cx="205.93" cy="197.41" r="180.27" transform="translate(-47.44 66.33) rotate(-16.43)"/><circle class="cls-28" cx="205.35" cy="196.96" r="179.79" transform="translate(-47.57 66.6) rotate(-16.54)"/><circle class="cls-29" cx="204.77" cy="196.51" r="179.32" transform="translate(-47.7 66.86) rotate(-16.64)"/><path class="cls-30" d="M383,196.05A178.85,178.85,0,1,1,204.18,17.22,178.84,178.84,0,0,1,383,196.05Z"/><path class="cls-31" d="M382,195.6A178.37,178.37,0,1,1,203.6,17.24,178.36,178.36,0,0,1,382,195.6Z"/><path class="cls-32" d="M380.92,195.15A177.9,177.9,0,1,1,203,17.27C301.27,17.26,380.91,96.91,380.92,195.15Z"/><path class="cls-33" d="M379.86,194.7A177.42,177.42,0,1,1,202.44,17.29,177.41,177.41,0,0,1,379.86,194.7Z"/><path class="cls-34" d="M378.81,194.25A176.95,176.95,0,1,1,201.86,17.31,176.94,176.94,0,0,1,378.81,194.25Z"/><path class="cls-35" d="M377.75,193.8A176.47,176.47,0,1,1,201.28,17.34,176.47,176.47,0,0,1,377.75,193.8Z"/><path class="cls-36" d="M376.7,193.35a176,176,0,1,1-176-176A176,176,0,0,1,376.7,193.35Z"/><path class="cls-37" d="M375.64,192.9A175.52,175.52,0,1,1,200.12,17.38,175.52,175.52,0,0,1,375.64,192.9Z"/><path class="cls-38" d="M374.59,192.45a175.05,175.05,0,1,1-175-175A175.05,175.05,0,0,1,374.59,192.45Z"/><path class="cls-39" d="M373.53,192A174.57,174.57,0,1,1,199,17.43,174.57,174.57,0,0,1,373.53,192Z"/><path class="cls-40" d="M372.47,191.55A174.1,174.1,0,1,1,198.38,17.46,174.09,174.09,0,0,1,372.47,191.55Z"/><path class="cls-41" d="M371.42,191.1A173.63,173.63,0,1,1,197.79,17.48,173.62,173.62,0,0,1,371.42,191.1Z"/><path class="cls-42" d="M370.36,190.65A173.15,173.15,0,1,1,197.21,17.5,173.14,173.14,0,0,1,370.36,190.65Z"/><path class="cls-43" d="M369.31,190.2A172.68,172.68,0,1,1,196.63,17.53,172.67,172.67,0,0,1,369.31,190.2Z"/><path class="cls-44" d="M368.25,189.75a172.2,172.2,0,1,1-172.2-172.2A172.19,172.19,0,0,1,368.25,189.75Z"/><path class="cls-45" d="M367.2,189.3A171.73,171.73,0,1,1,195.47,17.58,171.72,171.72,0,0,1,367.2,189.3Z"/><path class="cls-46" d="M366.14,188.84A171.25,171.25,0,1,1,194.89,17.6,171.24,171.24,0,0,1,366.14,188.84Z"/><path class="cls-47" d="M365.09,188.39A170.78,170.78,0,1,1,194.31,17.62,170.78,170.78,0,0,1,365.09,188.39Z"/><path class="cls-48" d="M364,187.94A170.3,170.3,0,1,1,193.73,17.65,170.3,170.3,0,0,1,364,187.94Z"/><path class="cls-49" d="M363,187.49A169.83,169.83,0,1,1,193.15,17.67,169.82,169.82,0,0,1,363,187.49Z"/><path class="cls-50" d="M361.92,187A169.35,169.35,0,1,1,192.57,17.69,169.36,169.36,0,0,1,361.92,187Z"/><path class="cls-51" d="M360.87,186.59A168.88,168.88,0,1,1,192,17.72,168.88,168.88,0,0,1,360.87,186.59Z"/><path class="cls-52" d="M359.81,186.14a168.41,168.41,0,1,1-168.4-168.4A168.4,168.4,0,0,1,359.81,186.14Z"/><path class="cls-53" d="M358.76,185.69A167.93,167.93,0,1,1,190.83,17.77,167.92,167.92,0,0,1,358.76,185.69Z"/><path class="cls-54" d="M357.7,185.24A167.46,167.46,0,1,1,190.24,17.79,167.46,167.46,0,0,1,357.7,185.24Z"/><path class="cls-55" d="M356.65,184.79a167,167,0,1,1-167-167A167,167,0,0,1,356.65,184.79Z"/><path class="cls-56" d="M355.59,184.34A166.51,166.51,0,1,1,189.08,17.84,166.5,166.5,0,0,1,355.59,184.34Z"/><path class="cls-57" d="M354.54,183.89a166,166,0,1,1-166-166A166,166,0,0,1,354.54,183.89Z"/><path class="cls-58" d="M353.48,183.44A165.56,165.56,0,1,1,187.92,17.89,165.56,165.56,0,0,1,353.48,183.44Z"/><path class="cls-59" d="M352.43,183A165.09,165.09,0,1,1,187.34,17.91,165.08,165.08,0,0,1,352.43,183Z"/><path class="cls-60" d="M351.37,182.54A164.61,164.61,0,1,1,186.76,17.93,164.6,164.6,0,0,1,351.37,182.54Z"/><path class="cls-61" d="M350.32,182.09A164.14,164.14,0,1,1,186.18,18,164.13,164.13,0,0,1,350.32,182.09Z"/><path class="cls-62" d="M349.26,181.64A163.66,163.66,0,1,1,185.6,18,163.66,163.66,0,0,1,349.26,181.64Z"/><path class="cls-63" d="M348.21,181.18A163.19,163.19,0,1,1,185,18,163.19,163.19,0,0,1,348.21,181.18Z"/><path d="M347.15,180.73A162.71,162.71,0,1,1,184.44,18,162.72,162.72,0,0,1,347.15,180.73Z"/></g><circle class="cls-64" cx="176.88" cy="177.25" r="175.38"/><polygon class="cls-65" points="179.65 229.29 179.65 280.05 242.42 191.44 179.65 229.29"/><polygon class="cls-65" points="240.11 175.29 179.65 74.45 179.65 147.6 240.11 175.29"/><polygon class="cls-65" points="179.65 153.37 179.65 215.9 239.65 180.83 179.65 153.37"/><polygon class="cls-65" points="113.66 175.29 174.34 74.45 174.34 147.6 113.66 175.29"/><polygon class="cls-65" points="174.34 153.37 174.34 215.9 114.12 180.83 174.34 153.37"/><polygon class="cls-65" points="174.11 229.29 174.11 280.05 111.35 191.44 174.11 229.29"/><path class="cls-66" d="M177.25,354.5C79.52,354.5,0,275,0,177.25S79.52,0,177.25,0,354.51,79.51,354.51,177.25,275,354.5,177.25,354.5Zm0-350.75c-95.66,0-173.5,77.83-173.5,173.5s77.84,173.5,173.5,173.5,173.5-77.83,173.5-173.5S272.92,3.75,177.25,3.75Z"/><path id="flare" class="cls-67" d="M340,111.16a174.2,174.2,0,0,1-318.66,0,174.22,174.22,0,0,1,318.66,0Z"/></g></g></g></svg>