<svg xmlns="http://www.w3.org/2000/svg" viewBox="0 0 71.06 71.07"><defs><style>.cls-1{isolation:isolate;}.cls-2{opacity:0.6;mix-blend-mode:multiply;}.cls-3,.cls-64{fill:#fff;}.cls-3{opacity:0;}.cls-4{fill:#fbfbfb;opacity:0.02;}.cls-5{fill:#f7f7f7;opacity:0.03;}.cls-6{fill:#f2f2f2;opacity:0.05;}.cls-7{fill:#eee;opacity:0.07;}.cls-8{fill:#eaeaea;opacity:0.08;}.cls-9{fill:#e6e6e6;opacity:0.1;}.cls-10{fill:#e2e2e2;opacity:0.11;}.cls-11{fill:#dedede;opacity:0.13;}.cls-12{fill:#d9d9d9;opacity:0.15;}.cls-13{fill:#d5d5d5;opacity:0.16;}.cls-14{fill:#d1d1d1;opacity:0.18;}.cls-15{fill:#cdcdcd;opacity:0.2;}.cls-16{fill:#c9c9c9;opacity:0.21;}.cls-17{fill:#c4c4c4;opacity:0.23;}.cls-18{fill:silver;opacity:0.25;}.cls-19{fill:#bcbcbc;opacity:0.26;}.cls-20{fill:#b8b8b8;opacity:0.28;}.cls-21{fill:#b4b4b4;opacity:0.3;}.cls-22{fill:#b0b0b0;opacity:0.31;}.cls-23{fill:#ababab;opacity:0.33;}.cls-24{fill:#a7a7a7;opacity:0.34;}.cls-25{fill:#a3a3a3;opacity:0.36;}.cls-26{fill:#9f9f9f;opacity:0.38;}.cls-27{fill:#9b9b9b;opacity:0.39;}.cls-28{fill:#969696;opacity:0.41;}.cls-29{fill:#929292;opacity:0.43;}.cls-30{fill:#8e8e8e;opacity:0.44;}.cls-31{fill:#8a8a8a;opacity:0.46;}.cls-32{fill:#868686;opacity:0.48;}.cls-33{fill:#828282;opacity:0.49;}.cls-34{fill:#7d7d7d;opacity:0.51;}.cls-35{fill:#797979;opacity:0.52;}.cls-36{fill:#757575;opacity:0.54;}.cls-37{fill:#717171;opacity:0.56;}.cls-38{fill:#6d6d6d;opacity:0.57;}.cls-39{fill:#696969;opacity:0.59;}.cls-40{fill:#646464;opacity:0.61;}.cls-41{fill:#606060;opacity:0.62;}.cls-42{fill:#5c5c5c;opacity:0.64;}.cls-43{fill:#585858;opacity:0.66;}.cls-44{fill:#545454;opacity:0.67;}.cls-45{fill:#4f4f4f;opacity:0.69;}.cls-46{fill:#4b4b4b;opacity:0.7;}.cls-47{fill:#474747;opacity:0.72;}.cls-48{fill:#434343;opacity:0.74;}.cls-49{fill:#3f3f3f;opacity:0.75;}.cls-50{fill:#3b3b3b;opacity:0.77;}.cls-51{fill:#363636;opacity:0.79;}.cls-52{fill:#323232;opacity:0.8;}.cls-53{fill:#2e2e2e;opacity:0.82;}.cls-54{fill:#2a2a2a;opacity:0.84;}.cls-55{fill:#262626;opacity:0.85;}.cls-56{fill:#212121;opacity:0.87;}.cls-57{fill:#1d1d1d;opacity:0.89;}.cls-58{fill:#191919;opacity:0.9;}.cls-59{fill:#151515;opacity:0.92;}.cls-60{fill:#111;opacity:0.93;}.cls-61{fill:#0d0d0d;opacity:0.95;}.cls-62{fill:#080808;opacity:0.97;}.cls-63{fill:#040404;opacity:0.98;}.cls-65{fill:#fe4f4b;}</style></defs><title>FINGER PRINT ICON</title><g class="cls-1"><g id="Layer_2" data-name="Layer 2"><g id="Layer_1-2" data-name="Layer 1"><g class="cls-2"><path class="cls-3" d="M71.06,35.53A35.53,35.53,0,1,1,35.53,0,35.53,35.53,0,0,1,71.06,35.53Z"/><path class="cls-4" d="M71,35.48A35.42,35.42,0,1,1,35.53.06,35.42,35.42,0,0,1,71,35.48Z"/><path class="cls-5" d="M70.84,35.42A35.31,35.31,0,1,1,35.53.12,35.31,35.31,0,0,1,70.84,35.42Z"/><path class="cls-6" d="M70.72,35.37A35.19,35.19,0,1,1,35.53.18,35.18,35.18,0,0,1,70.72,35.37Z"/><path class="cls-7" d="M70.61,35.31A35.08,35.08,0,1,1,35.53.24,35.09,35.09,0,0,1,70.61,35.31Z"/><path class="cls-8" d="M70.5,35.26a35,35,0,1,1-35-35A35,35,0,0,1,70.5,35.26Z"/><path class="cls-9" d="M70.38,35.21A34.85,34.85,0,1,1,35.53.35,34.85,34.85,0,0,1,70.38,35.21Z"/><path class="cls-10" d="M70.27,35.15A34.74,34.74,0,1,1,35.53.41,34.74,34.74,0,0,1,70.27,35.15Z"/><path class="cls-11" d="M70.16,35.1A34.63,34.63,0,1,1,35.53.47,34.64,34.64,0,0,1,70.16,35.1Z"/><circle class="cls-12" cx="35.53" cy="35.05" r="34.51" transform="translate(-13.36 45.07) rotate(-56.19)"/><circle class="cls-13" cx="35.53" cy="34.99" r="34.4" transform="translate(-13.31 45.04) rotate(-56.19)"/><circle class="cls-14" cx="35.53" cy="34.94" r="34.29" transform="translate(-13.27 45.02) rotate(-56.19)"/><circle class="cls-15" cx="35.53" cy="34.88" r="34.17" transform="translate(-13.22 45) rotate(-56.19)"/><circle class="cls-16" cx="35.53" cy="34.83" r="34.06" transform="translate(-13.18 44.97) rotate(-56.19)"/><circle class="cls-17" cx="35.53" cy="34.77" r="33.95" transform="translate(-13.13 44.95) rotate(-56.19)"/><circle class="cls-18" cx="35.53" cy="34.72" r="33.83" transform="translate(-13.09 44.92) rotate(-56.19)"/><circle class="cls-19" cx="35.53" cy="34.67" r="33.72" transform="translate(-13.04 44.9) rotate(-56.19)"/><circle class="cls-20" cx="35.53" cy="34.61" r="33.61" transform="translate(-13 44.88) rotate(-56.19)"/><circle class="cls-21" cx="35.53" cy="34.56" r="33.49" transform="translate(-12.95 44.85) rotate(-56.19)"/><circle class="cls-22" cx="35.53" cy="34.5" r="33.38" transform="translate(-12.91 44.83) rotate(-56.19)"/><circle class="cls-23" cx="35.53" cy="34.45" r="33.27" transform="translate(-12.86 44.8) rotate(-56.19)"/><circle class="cls-24" cx="35.53" cy="34.39" r="33.16" transform="translate(-12.82 44.78) rotate(-56.19)"/><circle class="cls-25" cx="35.53" cy="34.34" r="33.04" transform="translate(-12.77 44.76) rotate(-56.19)"/><circle class="cls-26" cx="35.53" cy="34.29" r="32.93" transform="translate(-12.73 44.73) rotate(-56.19)"/><circle class="cls-27" cx="35.53" cy="34.23" r="32.82" transform="translate(-12.68 44.71) rotate(-56.19)"/><circle class="cls-28" cx="35.53" cy="34.18" r="32.7" transform="matrix(0.56, -0.83, 0.83, 0.56, -12.64, 44.69)"/><circle class="cls-29" cx="35.53" cy="34.12" r="32.59" transform="translate(-12.59 44.66) rotate(-56.19)"/><circle class="cls-30" cx="35.53" cy="34.07" r="32.48" transform="translate(-12.55 44.64) rotate(-56.19)"/><circle class="cls-31" cx="35.53" cy="34.02" r="32.36" transform="translate(-12.5 44.61) rotate(-56.19)"/><circle class="cls-32" cx="35.53" cy="33.96" r="32.25" transform="translate(-12.46 44.59) rotate(-56.19)"/><circle class="cls-33" cx="35.53" cy="33.91" r="32.14" transform="translate(-12.41 44.57) rotate(-56.19)"/><circle class="cls-34" cx="35.53" cy="33.85" r="32.02" transform="translate(-12.37 44.54) rotate(-56.19)"/><circle class="cls-35" cx="35.53" cy="33.8" r="31.91" transform="translate(-12.32 44.52) rotate(-56.19)"/><circle class="cls-36" cx="35.53" cy="33.74" r="31.8" transform="translate(-12.28 44.49) rotate(-56.19)"/><circle class="cls-37" cx="35.53" cy="33.69" r="31.68" transform="translate(-12.23 44.47) rotate(-56.19)"/><circle class="cls-38" cx="35.53" cy="33.64" r="31.57" transform="translate(-12.19 44.45) rotate(-56.19)"/><circle class="cls-39" cx="35.53" cy="33.58" r="31.46" transform="translate(-12.14 44.42) rotate(-56.2)"/><circle class="cls-40" cx="35.53" cy="33.53" r="31.34" transform="translate(-12.1 44.4) rotate(-56.2)"/><circle class="cls-41" cx="35.53" cy="33.47" r="31.23" transform="translate(-12.05 44.38) rotate(-56.2)"/><circle class="cls-42" cx="35.53" cy="33.42" r="31.12" transform="translate(-12.01 44.35) rotate(-56.2)"/><circle class="cls-43" cx="35.53" cy="33.36" r="31" transform="translate(-11.96 44.33) rotate(-56.2)"/><circle class="cls-44" cx="35.53" cy="33.31" r="30.89" transform="translate(-11.92 44.3) rotate(-56.2)"/><circle class="cls-45" cx="35.53" cy="33.26" r="30.78" transform="translate(-11.87 44.28) rotate(-56.2)"/><circle class="cls-46" cx="35.53" cy="33.2" r="30.66" transform="translate(-11.83 44.26) rotate(-56.2)"/><circle class="cls-47" cx="35.53" cy="33.15" r="30.55" transform="translate(-11.78 44.23) rotate(-56.2)"/><circle class="cls-48" cx="35.53" cy="33.09" r="30.44" transform="translate(-11.74 44.21) rotate(-56.2)"/><circle class="cls-49" cx="35.53" cy="33.04" r="30.32" transform="translate(-11.69 44.18) rotate(-56.2)"/><circle class="cls-50" cx="35.53" cy="32.99" r="30.21" transform="translate(-11.64 44.16) rotate(-56.2)"/><circle class="cls-51" cx="35.53" cy="32.93" r="30.1" transform="translate(-11.6 44.14) rotate(-56.2)"/><circle class="cls-52" cx="35.53" cy="32.88" r="29.98" transform="translate(-11.55 44.11) rotate(-56.2)"/><circle class="cls-53" cx="35.53" cy="32.82" r="29.87" transform="translate(-11.51 44.09) rotate(-56.2)"/><circle class="cls-54" cx="35.53" cy="32.77" r="29.76" transform="translate(-11.46 44.07) rotate(-56.2)"/><circle class="cls-55" cx="35.53" cy="32.71" r="29.64" transform="translate(-11.42 44.04) rotate(-56.2)"/><circle class="cls-56" cx="35.53" cy="32.66" r="29.53" transform="translate(-11.37 44.02) rotate(-56.2)"/><circle class="cls-57" cx="35.53" cy="32.61" r="29.42" transform="translate(-11.33 43.99) rotate(-56.2)"/><circle class="cls-58" cx="35.53" cy="32.55" r="29.3" transform="translate(-11.28 43.97) rotate(-56.2)"/><circle class="cls-59" cx="35.53" cy="32.5" r="29.19" transform="translate(-11.24 43.95) rotate(-56.2)"/><circle class="cls-60" cx="35.53" cy="32.44" r="29.08" transform="translate(-11.19 43.92) rotate(-56.2)"/><circle class="cls-61" cx="35.53" cy="32.39" r="28.96" transform="translate(-11.15 43.9) rotate(-56.2)"/><circle class="cls-62" cx="35.53" cy="32.33" r="28.85" transform="translate(-11.1 43.87) rotate(-56.2)"/><circle class="cls-63" cx="35.53" cy="32.28" r="28.74" transform="translate(-11.06 43.85) rotate(-56.2)"/><circle cx="35.53" cy="32.23" r="28.62" transform="translate(-11.01 43.83) rotate(-56.2)"/></g><circle class="cls-64" cx="34.82" cy="34.64" r="31.5"/><g id="fingerprint"><path class="cls-65" d="M34.89,39.68a1.16,1.16,0,0,1-1.16-1.16V33.45a1.16,1.16,0,1,1,2.32,0v5.07A1.16,1.16,0,0,1,34.89,39.68Zm0-6.94a.71.71,0,0,0-.71.71v5.07a.71.71,0,0,0,1.42,0V33.45A.71.71,0,0,0,34.89,32.74Z"/><path class="cls-65" d="M34.89,52.15c-6.62,0-12-6.18-12-13.77V33.59c0-7.59,5.39-13.77,12-13.77s12,6.18,12,13.77v4.79C46.9,46,41.51,52.15,34.89,52.15Zm0-31.88c-6.38,0-11.56,6-11.56,13.32v4.79c0,7.35,5.18,13.32,11.56,13.32s11.56-6,11.56-13.32V33.59C46.45,26.25,41.26,20.27,34.89,20.27Z"/><path class="cls-65" d="M27.17,17.9a.21.21,0,0,1-.19-.11.23.23,0,0,1,.09-.31A25.07,25.07,0,0,1,30,16.12a.22.22,0,1,1,.16.42,22,22,0,0,0-2.85,1.34Z"/><path class="cls-65" d="M39,16.2h-.07a13.56,13.56,0,0,0-4-.6,12.19,12.19,0,0,0-2.78.33.22.22,0,1,1-.11-.43,12.65,12.65,0,0,1,2.89-.34,14.1,14.1,0,0,1,4.13.61.22.22,0,0,1-.06.44Z"/><path class="cls-65" d="M43.63,18.62a.24.24,0,0,1-.14-.05,15,15,0,0,0-2.67-1.63.23.23,0,0,1-.11-.3.23.23,0,0,1,.3-.11,16,16,0,0,1,2.75,1.69.21.21,0,0,1,0,.31A.21.21,0,0,1,43.63,18.62Z"/><path class="cls-65" d="M24.83,21.83a.22.22,0,0,1-.15-.06.23.23,0,0,1,0-.32,15,15,0,0,1,4.17-3.25.22.22,0,0,1,.3.1.22.22,0,0,1-.09.3A14.35,14.35,0,0,0,25,21.75.21.21,0,0,1,24.83,21.83Z"/><path class="cls-65" d="M29.6,18.3a.23.23,0,0,1-.09-.43l.23-.1a.22.22,0,0,1,.29.12.22.22,0,0,1-.11.29l-.23.1Z"/><path class="cls-65" d="M40.17,18.3l-.09,0-.22-.1a.22.22,0,1,1,.18-.41l.23.1a.23.23,0,0,1,.11.3A.23.23,0,0,1,40.17,18.3Zm-9.65-.38a.22.22,0,0,1-.21-.14.23.23,0,0,1,.13-.29,12.9,12.9,0,0,1,8.89,0,.23.23,0,0,1,.14.29.23.23,0,0,1-.29.13,12.49,12.49,0,0,0-8.58,0Z"/><path class="cls-65" d="M45,21.83a.25.25,0,0,1-.17-.08,14.34,14.34,0,0,0-4-3.15.22.22,0,0,1-.09-.3.23.23,0,0,1,.3-.1,14.71,14.71,0,0,1,4.16,3.26.21.21,0,0,1,0,.31A.22.22,0,0,1,45,21.83Z"/><path class="cls-65" d="M21.75,33.82a.22.22,0,0,1-.22-.23,17.91,17.91,0,0,1,.24-2.93.23.23,0,0,1,.26-.18.22.22,0,0,1,.18.25A17.07,17.07,0,0,0,22,33.59.22.22,0,0,1,21.75,33.82Z"/><path class="cls-65" d="M22.24,29.71h0a.23.23,0,0,1-.17-.27c0-.1.06-.2.08-.3a.22.22,0,1,1,.43.12c0,.09-.05.19-.07.29A.23.23,0,0,1,22.24,29.71Z"/><path class="cls-65" d="M47.53,29.7a.2.2,0,0,1-.21-.17c0-.09,0-.19-.08-.29A.22.22,0,0,1,47.4,29a.21.21,0,0,1,.27.15c0,.11.06.21.08.31a.22.22,0,0,1-.16.27ZM22.68,28.23h-.07a.23.23,0,0,1-.14-.29,15.64,15.64,0,0,1,3.14-5.36.22.22,0,0,1,.32,0,.22.22,0,0,1,0,.31,15.34,15.34,0,0,0-3.06,5.22A.23.23,0,0,1,22.68,28.23Zm24.42,0a.21.21,0,0,1-.21-.14,15.4,15.4,0,0,0-3.06-5.22.22.22,0,0,1,0-.32.23.23,0,0,1,.32,0,15.86,15.86,0,0,1,3.15,5.37.22.22,0,0,1-.14.28ZM26.65,22.06a.28.28,0,0,1-.17-.07.22.22,0,0,1,0-.32l.23-.21a.22.22,0,0,1,.31,0,.21.21,0,0,1,0,.31L26.8,22A.22.22,0,0,1,26.65,22.06Zm16.48,0A.25.25,0,0,1,43,22l-.22-.2a.22.22,0,0,1,0-.31.21.21,0,0,1,.31,0l.24.21a.22.22,0,0,1,0,.31A.2.2,0,0,1,43.13,22.05Zm-15.29-1a.21.21,0,0,1-.18-.09.22.22,0,0,1,0-.31,12.38,12.38,0,0,1,5.77-2.32.22.22,0,0,1,.06.44A11.82,11.82,0,0,0,28,21,.22.22,0,0,1,27.84,21.07Zm14.1,0a.23.23,0,0,1-.14,0,11.82,11.82,0,0,0-5.55-2.24.22.22,0,0,1-.2-.25.22.22,0,0,1,.25-.19,12.23,12.23,0,0,1,5.77,2.32.22.22,0,0,1,0,.31A.24.24,0,0,1,41.94,21.07ZM35,18.71h-.31a.22.22,0,0,1-.22-.22.24.24,0,0,1,.22-.23H35a.23.23,0,0,1,0,.45Z"/><path class="cls-65" d="M48,33.82a.22.22,0,0,1-.22-.23,16.87,16.87,0,0,0-.24-2.85.22.22,0,0,1,.18-.26.23.23,0,0,1,.26.18,17.91,17.91,0,0,1,.24,2.93A.22.22,0,0,1,48,33.82Z"/><path class="cls-65" d="M34.89,50.59a10.36,10.36,0,0,1-9-5.65.22.22,0,1,1,.39-.21,9.92,9.92,0,0,0,8.59,5.41h0a.23.23,0,1,1,0,.45ZM36,50.52a.22.22,0,0,1,0-.44l.27,0a.22.22,0,0,1,.25.19.22.22,0,0,1-.19.25l-.27,0Zm1.33-.26a.23.23,0,0,1-.21-.17.23.23,0,0,1,.15-.27,10.84,10.84,0,0,0,7.18-7.32.22.22,0,0,1,.42.14,11.28,11.28,0,0,1-7.48,7.61ZM25.62,44.09a.23.23,0,0,1-.21-.14c0-.08-.07-.16-.11-.25a.22.22,0,0,1,.12-.29.21.21,0,0,1,.29.12l.11.24a.23.23,0,0,1-.11.3Zm-.49-1.27a.22.22,0,0,1-.22-.16,14,14,0,0,1-.67-4.28V33.59a14,14,0,0,1,.12-1.84.22.22,0,0,1,.25-.19.21.21,0,0,1,.19.25,13.09,13.09,0,0,0-.12,1.78v4.79a13.1,13.1,0,0,0,.66,4.14.24.24,0,0,1-.14.29ZM45,41.75H44.9a.22.22,0,0,1-.16-.27l.06-.26a.22.22,0,0,1,.43.09l-.06.27A.22.22,0,0,1,45,41.75Zm.25-1.34h0a.23.23,0,0,1-.2-.26,14.89,14.89,0,0,0,.11-1.77V33.59a13.39,13.39,0,0,0-.65-4.15.21.21,0,0,1,.14-.28.22.22,0,0,1,.28.14,13.75,13.75,0,0,1,.68,4.29v4.79a13.94,13.94,0,0,1-.12,1.83A.23.23,0,0,1,45.2,40.41ZM24.77,30.93h-.05a.21.21,0,0,1-.17-.26l.06-.27a.23.23,0,0,1,.27-.17.22.22,0,0,1,.16.27l-.06.26A.21.21,0,0,1,24.77,30.93Zm.35-1.32h-.07a.22.22,0,0,1-.14-.28,11.28,11.28,0,0,1,7.49-7.6.22.22,0,0,1,.27.15.23.23,0,0,1-.15.28,10.84,10.84,0,0,0-7.19,7.31A.22.22,0,0,1,25.12,29.61Zm19.14-1a.22.22,0,0,1-.2-.14L44,28.19a.23.23,0,0,1,.11-.3.22.22,0,0,1,.3.12c0,.08.07.17.11.25a.22.22,0,0,1-.12.29A.15.15,0,0,1,44.26,28.57Zm-.59-1.22a.22.22,0,0,1-.2-.12,9.93,9.93,0,0,0-8.58-5.4h0a.23.23,0,1,1,0-.45h0a10.37,10.37,0,0,1,9,5.64.22.22,0,0,1-.09.3A.19.19,0,0,1,43.67,27.35ZM33.52,21.93a.22.22,0,0,1,0-.44l.27,0a.22.22,0,0,1,.06.44l-.27,0Z"/><path class="cls-65" d="M34.91,49h0a8.48,8.48,0,0,1-5-1.7,10.42,10.42,0,0,1-3.36-4.39.22.22,0,1,1,.41-.17,8.91,8.91,0,0,0,8,5.82h0a.22.22,0,1,1,0,.44ZM36,49a.22.22,0,0,1-.22-.2.22.22,0,0,1,.19-.25,9.31,9.31,0,0,0,7.29-6.75.23.23,0,0,1,.28-.15.23.23,0,0,1,.14.28,10.7,10.7,0,0,1-2.91,4.75A8.65,8.65,0,0,1,36,49Zm-9.65-6.89a.22.22,0,0,1-.21-.16,11.93,11.93,0,0,1-.53-3.53V33.59a12.59,12.59,0,0,1,.25-2.46.23.23,0,0,1,.27-.17.21.21,0,0,1,.17.26A11.69,11.69,0,0,0,26,33.59v4.79a11.38,11.38,0,0,0,.51,3.4.23.23,0,0,1-.15.28ZM43.72,41h0a.23.23,0,0,1-.17-.27,11.59,11.59,0,0,0,.24-2.36V33.59a11.45,11.45,0,0,0-.51-3.41.22.22,0,0,1,.15-.28.22.22,0,0,1,.27.15,11.72,11.72,0,0,1,.53,3.54v4.79a12.49,12.49,0,0,1-.24,2.45A.23.23,0,0,1,43.72,41ZM26.33,30.36h-.07a.22.22,0,0,1-.14-.28A10.8,10.8,0,0,1,29,25.32,8.6,8.6,0,0,1,33.78,23a.22.22,0,0,1,.25.19.22.22,0,0,1-.19.25,9.28,9.28,0,0,0-7.3,6.74A.22.22,0,0,1,26.33,30.36Zm16.75-1a.23.23,0,0,1-.21-.14,8.89,8.89,0,0,0-8-5.8h0a.22.22,0,0,1-.22-.23.22.22,0,0,1,.22-.22h0a8.42,8.42,0,0,1,5,1.7A10.39,10.39,0,0,1,43.28,29a.22.22,0,0,1-.12.29Z"/><path class="cls-65" d="M34.91,47.47h0a7.41,7.41,0,0,1-5.52-2.56.22.22,0,0,1,0-.31.21.21,0,0,1,.31,0A7,7,0,0,0,34.89,47h0a.22.22,0,1,1,0,.44Zm1.21-.11a.22.22,0,0,1-.22-.18.21.21,0,0,1,.18-.26l.28-.06a.23.23,0,0,1,.27.17.21.21,0,0,1-.17.26l-.3.07Zm1.45-.44a.22.22,0,0,1-.09-.43,7.91,7.91,0,0,0,4.05-4.12.23.23,0,0,1,.3-.11.23.23,0,0,1,.11.3,8.38,8.38,0,0,1-4.29,4.34A.11.11,0,0,1,37.57,46.92ZM28.79,44a.26.26,0,0,1-.19-.1c-.05-.09-.11-.17-.17-.26a.24.24,0,0,1,.07-.31.23.23,0,0,1,.31.07c.05.09.11.17.16.25a.22.22,0,0,1-.06.31A.17.17,0,0,1,28.79,44Zm-.74-1.33a.23.23,0,0,1-.21-.13A10.23,10.23,0,0,1,27,38.38V36.52a.22.22,0,0,1,.22-.22.22.22,0,0,1,.23.22v1.86a9.75,9.75,0,0,0,.85,4,.22.22,0,0,1-.11.29A.15.15,0,0,1,28.05,42.7Zm14.12-1.15H42.1a.23.23,0,0,1-.15-.28L42,41a.22.22,0,0,1,.43.11l-.09.3A.22.22,0,0,1,42.17,41.55Zm.33-1.48h0a.23.23,0,0,1-.19-.26,9.73,9.73,0,0,0,.1-1.43V33.77a.22.22,0,0,1,.22-.22.22.22,0,0,1,.23.22v4.61a10.7,10.7,0,0,1-.11,1.5A.22.22,0,0,1,42.5,40.07ZM27.17,35.53a.22.22,0,0,1-.22-.22V35a.22.22,0,0,1,.22-.22.22.22,0,0,1,.23.22v.31A.22.22,0,0,1,27.17,35.53Zm0-1.52a.22.22,0,0,1-.22-.22v-.2a10,10,0,0,1,1.74-5.67.22.22,0,1,1,.36.26,9.5,9.5,0,0,0-1.65,5.41v.2A.22.22,0,0,1,27.17,34Zm15.38-1.23a.23.23,0,0,1-.22-.2l0-.3a.22.22,0,0,1,.44-.06l0,.31a.22.22,0,0,1-.2.25Zm-.27-1.5a.2.2,0,0,1-.21-.17,8.61,8.61,0,0,0-3.21-4.84.23.23,0,1,1,.27-.37A9.19,9.19,0,0,1,42.5,31a.22.22,0,0,1-.16.27Zm-12.65-4a.22.22,0,0,1-.15-.06.23.23,0,0,1,0-.32c.07-.07.14-.15.22-.22A.22.22,0,0,1,30,27a2.09,2.09,0,0,0-.2.22A.28.28,0,0,1,29.63,27.33Zm1.14-1a.21.21,0,0,1-.18-.09.24.24,0,0,1,.05-.32,7.22,7.22,0,0,1,4.25-1.41h0a7,7,0,0,1,1.7.21.22.22,0,0,1-.11.43A6.53,6.53,0,0,0,34.89,25h0a6.73,6.73,0,0,0-4,1.33A.33.33,0,0,1,30.77,26.32ZM38,25.68a.17.17,0,0,1-.1,0l-.27-.12a.23.23,0,0,1-.11-.3.22.22,0,0,1,.29-.11l.29.13a.23.23,0,0,1-.1.43Z"/><path class="cls-65" d="M34.89,45.91c-3.63,0-6.58-3.38-6.58-7.53V33.59c0-4.15,3-7.53,6.58-7.53s6.58,3.38,6.58,7.53v4.79C41.47,42.53,38.52,45.91,34.89,45.91Zm0-19.41c-3.39,0-6.14,3.18-6.14,7.09v4.79c0,3.91,2.75,7.09,6.14,7.09S41,42.29,41,38.38V33.59C41,29.68,38.27,26.5,34.89,26.5Z"/><path class="cls-65" d="M34.9,44.35h0a5.2,5.2,0,0,1-4.67-3.28.23.23,0,0,1,.11-.3.22.22,0,0,1,.3.12,4.74,4.74,0,0,0,4.26,3h0a.22.22,0,0,1,.22.22A.22.22,0,0,1,34.9,44.35Zm2.69-.91a.23.23,0,0,1-.18-.09.22.22,0,0,1,.05-.31,5.79,5.79,0,0,0,2.21-4.66v-.23a.23.23,0,1,1,.45,0v.23a6.22,6.22,0,0,1-2.4,5A.2.2,0,0,1,37.59,43.44Zm-7.71-5.06a.22.22,0,0,1-.22-.22V33.59a6.54,6.54,0,0,1,.12-1.25.22.22,0,1,1,.44.08,5.73,5.73,0,0,0-.11,1.17v4.57A.22.22,0,0,1,29.88,38.38Zm10-2.9a.22.22,0,0,1-.22-.23V33.59a6,6,0,0,0-1.24-3.7.23.23,0,0,1,0-.31.23.23,0,0,1,.32,0,6.53,6.53,0,0,1,1.33,4v1.66A.23.23,0,0,1,39.89,35.48ZM31.16,30a.23.23,0,0,1-.14,0,.25.25,0,0,1,0-.32,5,5,0,0,1,3.91-2,4.68,4.68,0,0,1,1.48.24.23.23,0,0,1,.14.29.23.23,0,0,1-.28.14,4.06,4.06,0,0,0-1.34-.23,4.51,4.51,0,0,0-3.55,1.84A.25.25,0,0,1,31.16,30Z"/><path class="cls-65" d="M34.89,42.8A4.1,4.1,0,0,1,31,38.86a.22.22,0,0,1,.44,0,3.66,3.66,0,0,0,3.41,3.53h0a.22.22,0,0,1,.22.22.22.22,0,0,1-.22.23Zm2.52-1.17a.22.22,0,0,1-.15-.06.21.21,0,0,1,0-.31,4.29,4.29,0,0,0,1.06-2.88V36a.23.23,0,1,1,.45,0v2.4a4.69,4.69,0,0,1-1.18,3.17A.25.25,0,0,1,37.41,41.63Zm-6.17-5.42A.22.22,0,0,1,31,36v-2.4a4.71,4.71,0,0,1,1.18-3.18.22.22,0,0,1,.32,0,.21.21,0,0,1,0,.31,4.25,4.25,0,0,0-1.07,2.88V36A.22.22,0,0,1,31.24,36.21Zm7.27-2.86a.23.23,0,0,1-.22-.2,3.65,3.65,0,0,0-3.4-3.53h0a.22.22,0,0,1,0-.44h0a4.09,4.09,0,0,1,3.85,3.92.23.23,0,0,1-.2.25Z"/><path class="cls-65" d="M34.9,41.24h0a2.71,2.71,0,0,1-2.52-2.86V37a.22.22,0,0,1,.23-.22.22.22,0,0,1,.22.22v1.35a2.26,2.26,0,0,0,2.07,2.41h0a.22.22,0,0,1,.22.22A.22.22,0,0,1,34.9,41.24Zm1-.27a.22.22,0,0,1-.11-.42A2.48,2.48,0,0,0,37,38.38V36a.22.22,0,0,1,.44,0v2.4A2.89,2.89,0,0,1,36,40.94.19.19,0,0,1,35.9,41Zm-3.3-4.76a.22.22,0,0,1-.23-.22v-2.4A2.9,2.9,0,0,1,33.78,31a.23.23,0,0,1,.3.08.24.24,0,0,1-.08.31,2.47,2.47,0,0,0-1.18,2.17V36A.22.22,0,0,1,32.6,36.21Zm4.58-1.05a.22.22,0,0,1-.22-.23V33.59a2.26,2.26,0,0,0-2.07-2.41.23.23,0,0,1-.23-.22.22.22,0,0,1,.22-.22h0a2.7,2.7,0,0,1,2.51,2.85v1.34A.22.22,0,0,1,37.18,35.16Z"/><path class="cls-65" d="M34.89,39.68a1.16,1.16,0,0,1-1.16-1.16V33.45a1.16,1.16,0,1,1,2.32,0v5.07A1.16,1.16,0,0,1,34.89,39.68Zm0-6.94a.71.71,0,0,0-.71.71v5.07a.71.71,0,0,0,1.42,0V33.45A.71.71,0,0,0,34.89,32.74Z"/><rect class="cls-65" x="34.59" y="33.97" width="0.59" height="4.03" rx="0.29"/></g></g></g></g></svg>