<svg xmlns="http://www.w3.org/2000/svg" viewBox="0 0 71.06 71.07"><defs><style>.cls-1{isolation:isolate;}.cls-2{opacity:0.6;mix-blend-mode:multiply;}.cls-3,.cls-64{fill:#fff;}.cls-3{opacity:0;}.cls-4{fill:#fbfbfb;opacity:0.02;}.cls-5{fill:#f7f7f7;opacity:0.03;}.cls-6{fill:#f2f2f2;opacity:0.05;}.cls-7{fill:#eee;opacity:0.07;}.cls-8{fill:#eaeaea;opacity:0.08;}.cls-9{fill:#e6e6e6;opacity:0.1;}.cls-10{fill:#e2e2e2;opacity:0.11;}.cls-11{fill:#dedede;opacity:0.13;}.cls-12{fill:#d9d9d9;opacity:0.15;}.cls-13{fill:#d5d5d5;opacity:0.16;}.cls-14{fill:#d1d1d1;opacity:0.18;}.cls-15{fill:#cdcdcd;opacity:0.2;}.cls-16{fill:#c9c9c9;opacity:0.21;}.cls-17{fill:#c4c4c4;opacity:0.23;}.cls-18{fill:silver;opacity:0.25;}.cls-19{fill:#bcbcbc;opacity:0.26;}.cls-20{fill:#b8b8b8;opacity:0.28;}.cls-21{fill:#b4b4b4;opacity:0.3;}.cls-22{fill:#b0b0b0;opacity:0.31;}.cls-23{fill:#ababab;opacity:0.33;}.cls-24{fill:#a7a7a7;opacity:0.34;}.cls-25{fill:#a3a3a3;opacity:0.36;}.cls-26{fill:#9f9f9f;opacity:0.38;}.cls-27{fill:#9b9b9b;opacity:0.39;}.cls-28{fill:#969696;opacity:0.41;}.cls-29{fill:#929292;opacity:0.43;}.cls-30{fill:#8e8e8e;opacity:0.44;}.cls-31{fill:#8a8a8a;opacity:0.46;}.cls-32{fill:#868686;opacity:0.48;}.cls-33{fill:#828282;opacity:0.49;}.cls-34{fill:#7d7d7d;opacity:0.51;}.cls-35{fill:#797979;opacity:0.52;}.cls-36{fill:#757575;opacity:0.54;}.cls-37{fill:#717171;opacity:0.56;}.cls-38{fill:#6d6d6d;opacity:0.57;}.cls-39{fill:#696969;opacity:0.59;}.cls-40{fill:#646464;opacity:0.61;}.cls-41{fill:#606060;opacity:0.62;}.cls-42{fill:#5c5c5c;opacity:0.64;}.cls-43{fill:#585858;opacity:0.66;}.cls-44{fill:#545454;opacity:0.67;}.cls-45{fill:#4f4f4f;opacity:0.69;}.cls-46{fill:#4b4b4b;opacity:0.7;}.cls-47{fill:#474747;opacity:0.72;}.cls-48{fill:#434343;opacity:0.74;}.cls-49{fill:#3f3f3f;opacity:0.75;}.cls-50{fill:#3b3b3b;opacity:0.77;}.cls-51{fill:#363636;opacity:0.79;}.cls-52{fill:#323232;opacity:0.8;}.cls-53{fill:#2e2e2e;opacity:0.82;}.cls-54{fill:#2a2a2a;opacity:0.84;}.cls-55{fill:#262626;opacity:0.85;}.cls-56{fill:#212121;opacity:0.87;}.cls-57{fill:#1d1d1d;opacity:0.89;}.cls-58{fill:#191919;opacity:0.9;}.cls-59{fill:#151515;opacity:0.92;}.cls-60{fill:#111;opacity:0.93;}.cls-61{fill:#0d0d0d;opacity:0.95;}.cls-62{fill:#080808;opacity:0.97;}.cls-63{fill:#040404;opacity:0.98;}.cls-65{fill:#fe4f4b;}</style></defs><title>TRUST ICON</title><g class="cls-1"><g id="Layer_2" data-name="Layer 2"><g id="Layer_1-2" data-name="Layer 1"><g class="cls-2"><path class="cls-3" d="M71.06,35.53A35.53,35.53,0,1,1,35.53,0,35.53,35.53,0,0,1,71.06,35.53Z"/><path class="cls-4" d="M71,35.48A35.42,35.42,0,1,1,35.53.06,35.42,35.42,0,0,1,71,35.48Z"/><path class="cls-5" d="M70.84,35.42A35.31,35.31,0,1,1,35.53.12,35.31,35.31,0,0,1,70.84,35.42Z"/><path class="cls-6" d="M70.72,35.37A35.19,35.19,0,1,1,35.53.18,35.18,35.18,0,0,1,70.72,35.37Z"/><path class="cls-7" d="M70.61,35.31A35.08,35.08,0,1,1,35.53.24,35.09,35.09,0,0,1,70.61,35.31Z"/><path class="cls-8" d="M70.5,35.26a35,35,0,1,1-35-35A35,35,0,0,1,70.5,35.26Z"/><path class="cls-9" d="M70.38,35.21A34.85,34.85,0,1,1,35.53.35,34.85,34.85,0,0,1,70.38,35.21Z"/><path class="cls-10" d="M70.27,35.15A34.74,34.74,0,1,1,35.53.41,34.74,34.74,0,0,1,70.27,35.15Z"/><path class="cls-11" d="M70.16,35.1A34.63,34.63,0,1,1,35.53.47,34.64,34.64,0,0,1,70.16,35.1Z"/><circle class="cls-12" cx="35.53" cy="35.05" r="34.51" transform="translate(-13.36 45.07) rotate(-56.19)"/><circle class="cls-13" cx="35.53" cy="34.99" r="34.4" transform="translate(-13.31 45.04) rotate(-56.19)"/><circle class="cls-14" cx="35.53" cy="34.94" r="34.29" transform="translate(-13.27 45.02) rotate(-56.19)"/><circle class="cls-15" cx="35.53" cy="34.88" r="34.17" transform="translate(-13.22 45) rotate(-56.19)"/><circle class="cls-16" cx="35.53" cy="34.83" r="34.06" transform="matrix(0.56, -0.83, 0.83, 0.56, -13.18, 44.97)"/><circle class="cls-17" cx="35.53" cy="34.77" r="33.95" transform="translate(-13.13 44.95) rotate(-56.19)"/><circle class="cls-18" cx="35.53" cy="34.72" r="33.83" transform="matrix(0.56, -0.83, 0.83, 0.56, -13.09, 44.92)"/><circle class="cls-19" cx="35.53" cy="34.67" r="33.72" transform="translate(-13.04 44.9) rotate(-56.19)"/><circle class="cls-20" cx="35.53" cy="34.61" r="33.61" transform="matrix(0.56, -0.83, 0.83, 0.56, -13, 44.88)"/><circle class="cls-21" cx="35.53" cy="34.56" r="33.49" transform="translate(-12.95 44.85) rotate(-56.19)"/><circle class="cls-22" cx="35.53" cy="34.5" r="33.38" transform="translate(-12.91 44.83) rotate(-56.19)"/><circle class="cls-23" cx="35.53" cy="34.45" r="33.27" transform="translate(-12.86 44.8) rotate(-56.19)"/><circle class="cls-24" cx="35.53" cy="34.39" r="33.16" transform="translate(-12.82 44.78) rotate(-56.19)"/><circle class="cls-25" cx="35.53" cy="34.34" r="33.04" transform="translate(-12.77 44.76) rotate(-56.19)"/><circle class="cls-26" cx="35.53" cy="34.29" r="32.93" transform="translate(-12.73 44.73) rotate(-56.19)"/><circle class="cls-27" cx="35.53" cy="34.23" r="32.82" transform="translate(-12.68 44.71) rotate(-56.19)"/><circle class="cls-28" cx="35.53" cy="34.18" r="32.7" transform="translate(-12.64 44.69) rotate(-56.19)"/><circle class="cls-29" cx="35.53" cy="34.12" r="32.59" transform="matrix(0.56, -0.83, 0.83, 0.56, -12.59, 44.66)"/><circle class="cls-30" cx="35.53" cy="34.07" r="32.48" transform="translate(-12.55 44.64) rotate(-56.19)"/><circle class="cls-31" cx="35.53" cy="34.02" r="32.36" transform="translate(-12.5 44.61) rotate(-56.19)"/><circle class="cls-32" cx="35.53" cy="33.96" r="32.25" transform="translate(-12.46 44.59) rotate(-56.19)"/><circle class="cls-33" cx="35.53" cy="33.91" r="32.14" transform="translate(-12.41 44.57) rotate(-56.19)"/><circle class="cls-34" cx="35.53" cy="33.85" r="32.02" transform="matrix(0.56, -0.83, 0.83, 0.56, -12.37, 44.54)"/><circle class="cls-35" cx="35.53" cy="33.8" r="31.91" transform="matrix(0.56, -0.83, 0.83, 0.56, -12.32, 44.52)"/><circle class="cls-36" cx="35.53" cy="33.74" r="31.8" transform="translate(-12.28 44.49) rotate(-56.19)"/><circle class="cls-37" cx="35.53" cy="33.69" r="31.68" transform="translate(-12.23 44.47) rotate(-56.19)"/><circle class="cls-38" cx="35.53" cy="33.64" r="31.57" transform="translate(-12.19 44.45) rotate(-56.19)"/><circle class="cls-39" cx="35.53" cy="33.58" r="31.46" transform="matrix(0.56, -0.83, 0.83, 0.56, -12.14, 44.42)"/><circle class="cls-40" cx="35.53" cy="33.53" r="31.34" transform="translate(-12.1 44.4) rotate(-56.2)"/><circle class="cls-41" cx="35.53" cy="33.47" r="31.23" transform="translate(-12.05 44.38) rotate(-56.2)"/><circle class="cls-42" cx="35.53" cy="33.42" r="31.12" transform="translate(-12.01 44.35) rotate(-56.2)"/><circle class="cls-43" cx="35.53" cy="33.36" r="31" transform="matrix(0.56, -0.83, 0.83, 0.56, -11.96, 44.33)"/><circle class="cls-44" cx="35.53" cy="33.31" r="30.89" transform="translate(-11.92 44.3) rotate(-56.2)"/><circle class="cls-45" cx="35.53" cy="33.26" r="30.78" transform="translate(-11.87 44.28) rotate(-56.2)"/><circle class="cls-46" cx="35.53" cy="33.2" r="30.66" transform="matrix(0.56, -0.83, 0.83, 0.56, -11.83, 44.26)"/><circle class="cls-47" cx="35.53" cy="33.15" r="30.55" transform="translate(-11.78 44.23) rotate(-56.2)"/><circle class="cls-48" cx="35.53" cy="33.09" r="30.44" transform="translate(-11.74 44.21) rotate(-56.2)"/><circle class="cls-49" cx="35.53" cy="33.04" r="30.32" transform="translate(-11.69 44.18) rotate(-56.2)"/><circle class="cls-50" cx="35.53" cy="32.99" r="30.21" transform="translate(-11.64 44.16) rotate(-56.2)"/><circle class="cls-51" cx="35.53" cy="32.93" r="30.1" transform="translate(-11.6 44.14) rotate(-56.2)"/><circle class="cls-52" cx="35.53" cy="32.88" r="29.98" transform="translate(-11.55 44.11) rotate(-56.2)"/><circle class="cls-53" cx="35.53" cy="32.82" r="29.87" transform="translate(-11.51 44.09) rotate(-56.2)"/><circle class="cls-54" cx="35.53" cy="32.77" r="29.76" transform="translate(-11.46 44.07) rotate(-56.2)"/><circle class="cls-55" cx="35.53" cy="32.71" r="29.64" transform="translate(-11.42 44.04) rotate(-56.2)"/><circle class="cls-56" cx="35.53" cy="32.66" r="29.53" transform="translate(-11.37 44.02) rotate(-56.2)"/><circle class="cls-57" cx="35.53" cy="32.61" r="29.42" transform="translate(-11.33 43.99) rotate(-56.2)"/><circle class="cls-58" cx="35.53" cy="32.55" r="29.3" transform="translate(-11.28 43.97) rotate(-56.2)"/><circle class="cls-59" cx="35.53" cy="32.5" r="29.19" transform="translate(-11.24 43.95) rotate(-56.2)"/><circle class="cls-60" cx="35.53" cy="32.44" r="29.08" transform="translate(-11.19 43.92) rotate(-56.2)"/><circle class="cls-61" cx="35.53" cy="32.39" r="28.96" transform="translate(-11.15 43.9) rotate(-56.2)"/><circle class="cls-62" cx="35.53" cy="32.33" r="28.85" transform="translate(-11.1 43.87) rotate(-56.2)"/><circle class="cls-63" cx="35.53" cy="32.28" r="28.74" transform="translate(-11.06 43.85) rotate(-56.2)"/><circle cx="35.53" cy="32.23" r="28.62" transform="translate(-11.01 43.83) rotate(-56.2)"/></g><circle class="cls-64" cx="34.82" cy="32.64" r="31.5"/><path class="cls-65" d="M23.31,18.88V38.07a9.23,9.23,0,0,0,4.46,7.87l7.34,4.41,7.35-4.41a9.22,9.22,0,0,0,4.46-7.87v-19A18.39,18.39,0,0,1,35,14.35C31.45,17.12,25.73,18.43,23.31,18.88Zm20.6,9L33.42,38.38a1.32,1.32,0,0,1-1.86,0l-3.93-3.94,1.85-1.85,3,3L42.06,26Z"/></g></g></g></svg>